HIERARCHY
ROOT Hips
{
	OFFSET 0.000000 8.830580 0.000000
	CHANNELS 6 Xposition Yposition Zposition Zrotation Yrotation Xrotation 
	JOINT Spine
	{
		OFFSET 0.000000 0.010000 0.000000
		CHANNELS 3 Zrotation Yrotation Xrotation
		JOINT Spine1
		{
			OFFSET 0.000000 2.459130 0.000000
			CHANNELS 3 Zrotation Yrotation Xrotation
			JOINT Neck
			{
				OFFSET 0.000000 2.484630 0.000000
				CHANNELS 3 Zrotation Yrotation Xrotation
				JOINT Head_virtual
				{
					OFFSET 0.000000 0.000000 0.000000
					CHANNELS 3 Zrotation Yrotation Xrotation
					JOINT Head
					{
						OFFSET 0.000000 0.927525 0.000000
						CHANNELS 3 Zrotation Yrotation Xrotation
						End Site
						{
							OFFSET 0.000000 0.000000 0.000000
						}
					}
				}
				JOINT LeftUpArm_virtual
				{
					OFFSET 0.000000 0.000000 0.000000
					CHANNELS 3 Zrotation Yrotation Xrotation
					JOINT LeftUpArm
					{
						OFFSET 1.248820 0.000000 0.000000
						CHANNELS 3 Zrotation Yrotation Xrotation
						JOINT LeftForeArm
						{
							OFFSET 2.597580 0.000000 0.000000
							CHANNELS 3 Zrotation Yrotation Xrotation
							JOINT LeftHand
							{
								OFFSET 2.455420 0.000000 0.000000
								CHANNELS 3 Zrotation Yrotation Xrotation
								End Site
								{
									OFFSET 0.000000 0.000000 0.000000
								}
							}
						}
					}
				}
				JOINT RightUpArm_virtual
				{
					OFFSET -0.000000 -0.000000 -0.000000
					CHANNELS 3 Zrotation Yrotation Xrotation
					JOINT RightUpArm
					{
						OFFSET -1.248820 -0.000000 -0.000000
						CHANNELS 3 Zrotation Yrotation Xrotation
						JOINT RightForeArm
						{
							OFFSET -2.597580 -0.000000 -0.000000
							CHANNELS 3 Zrotation Yrotation Xrotation
							JOINT RightHand
							{
								OFFSET -2.455420 -0.000000 -0.000000
								CHANNELS 3 Zrotation Yrotation Xrotation
								End Site
								{
									OFFSET 0.000000 0.000000 0.000000
								}
							}
						}
					}
				}
			}
		}
	}
	JOINT LeftUpLeg
	{
		OFFSET 1.271939 0.000000 0.000000
		CHANNELS 3 Zrotation Yrotation Xrotation
		JOINT LeftLowLeg
		{
			OFFSET 0.000000 -4.342910 0.000000
			CHANNELS 3 Zrotation Yrotation Xrotation
			JOINT LeftFoot
			{
				OFFSET 0.000000 -4.487670 0.000000
				CHANNELS 3 Zrotation Yrotation Xrotation
				JOINT LeftToeBase
				{
					OFFSET 0.000000 0.000000 1.515070
					CHANNELS 3 Zrotation Yrotation Xrotation
					End Site
					{
						OFFSET 0.000000 0.000000 0.000000
					}
				}
			}
		}
	}
	JOINT RightUpLeg
	{
		OFFSET -1.271939 0.000000 0.000000
		CHANNELS 3 Zrotation Yrotation Xrotation
		JOINT RightLowLeg
		{
			OFFSET 0.000000 -4.342910 0.000000
			CHANNELS 3 Zrotation Yrotation Xrotation
			JOINT RightFoot
			{
				OFFSET 0.000000 -4.487670 0.000000
				CHANNELS 3 Zrotation Yrotation Xrotation
				JOINT RightToeBase
				{
					OFFSET 0.000000 0.000000 1.515070
					CHANNELS 3 Zrotation Yrotation Xrotation
					End Site
					{
						OFFSET 0.000000 0.000000 0.000000
					}
				}
			}
		}
	}
}
MOTION
Frames: 5
Frame Time: 0.041667
-19.341667 9.207379 49.708331 -175.305077 -0.971330 -177.316889 2.917577 -2.319761 -6.171948 -0.021952 -2.602262 5.757958 0.000000 0.000000 0.000000 -6.570801 -0.333217 -11.518166 10.217261 7.668778 -52.180159 -1.225390 15.518100 -3.214940 -6.431700 -1.183890 -31.621300 0.000000 -21.868900 0.000000 28.251900 8.752940 27.205601 8.624210 -10.666300 -1.179190 11.948100 -0.596875 -35.693699 0.000000 22.823601 0.000000 -20.202600 -2.607210 25.941099 4.620509 -1.646497 -2.567081 0.000000 0.000000 8.949600 -10.639019 -0.178545 5.285875 0.000000 0.000000 -38.091101 3.306090 5.731686 -0.932628 0.000000 0.000000 7.910210 7.771986 -7.411151 8.962067 0.000000 0.000000 -27.953900 
-19.341834 9.207420 49.708727 -175.302757 -0.969622 -177.308398 2.920065 -2.314069 -6.163926 -0.014275 -2.597006 5.749825 0.000000 0.000000 0.000000 -6.558567 -0.348549 -11.489149 10.192990 7.663525 -52.154269 -1.237930 15.497800 -3.202660 -6.442420 -1.186440 -31.664499 0.000000 -21.838301 0.000000 28.216200 8.715530 27.030800 8.628170 -10.658200 -1.181630 11.968600 -0.594510 -35.720798 0.000000 22.864000 0.000000 -20.125999 -2.543900 25.695499 4.621883 -1.652276 -2.571070 0.000000 0.000000 8.936040 -10.630518 -0.168740 5.288293 0.000000 0.000000 -38.078600 3.306046 5.696475 -0.929249 0.000000 0.000000 7.880460 7.766147 -7.385129 8.974494 0.000000 0.000000 -27.930000 
-19.342186 9.207383 49.709313 -175.305450 -0.966971 -177.295008 2.917536 -2.308898 -6.159480 0.023330 -2.590935 5.723821 0.000000 0.000000 0.000000 -6.659725 -0.330593 -11.450898 10.258468 7.605594 -52.133838 -1.278780 15.451400 -3.174560 -6.428470 -1.159910 -31.650900 0.000000 -21.817200 0.000000 28.200600 8.725530 27.149200 8.582110 -10.703700 -1.164680 12.047700 -0.463827 -35.778000 0.000000 23.280600 0.000000 -20.545700 -4.115670 25.983000 4.617272 -1.666603 -2.585344 0.000000 0.000000 8.931810 -10.641035 -0.154955 5.285429 0.000000 0.000000 -38.078600 3.299269 5.693992 -0.943831 0.000000 0.000000 7.877450 7.757303 -7.383248 8.978127 0.000000 0.000000 -27.941000 
-19.342320 9.207390 49.709408 -175.304660 -0.956512 -177.277352 2.919246 -2.297524 -6.166316 0.009075 -2.580104 5.738317 0.000000 0.000000 0.000000 -6.628253 -0.321611 -11.492501 10.249660 7.617517 -52.085637 -1.240230 15.495400 -3.179230 -6.480800 -1.210830 -31.596201 0.000000 -21.865400 0.000000 28.212700 8.809790 27.300200 8.614800 -10.678300 -1.192310 12.001600 -0.543843 -35.630501 0.000000 22.984800 0.000000 -20.277201 -2.931400 25.769100 4.617576 -1.653446 -2.593571 0.000000 0.000000 8.915060 -10.639243 -0.155865 5.294340 0.000000 0.000000 -38.093100 3.295480 5.668051 -0.958854 0.000000 0.000000 7.864890 7.769611 -7.347441 8.988731 0.000000 0.000000 -27.952200 
-19.342864 9.207527 49.710190 -175.305447 -0.941423 -177.246740 2.934515 -2.280066 -6.187027 -0.013064 -2.565548 5.762255 0.000000 0.000000 0.000000 -6.640932 -0.301445 -11.498181 10.267697 7.621431 -52.064306 -1.270640 15.476700 -3.124090 -6.437750 -1.206550 -31.595800 0.000000 -21.845900 0.000000 28.216200 8.751930 27.348301 8.632050 -10.652500 -1.174030 12.002600 -0.533157 -35.622200 0.000000 22.874901 0.000000 -20.146999 -2.594680 25.658800 4.614172 -1.635732 -2.617607 0.000000 0.000000 8.900710 -10.635635 -0.156499 5.306000 0.000000 0.000000 -38.077999 3.286521 5.683363 -0.998165 0.000000 0.000000 7.866950 7.771227 -7.349334 8.998330 0.000000 0.000000 -27.950800 
